<?xml version="1.0" encoding="UTF-8"?>
<svg version="1.1" xmlns="http://www.w3.org/2000/svg" width="1024" height="1024">
<path d="M0 0 C0.84075073 0.07776672 1.68150146 0.15553345 2.54772949 0.23565674 C83.11783499 7.7742206 160.50421485 25.86612628 234 60.25 C235.03716156 60.73345886 235.03716156 60.73345886 236.09527588 61.22668457 C251.23545955 68.31365623 265.5706682 76.4067711 279.4375 85.75 C280.01406342 86.13673889 280.59062683 86.52347778 281.18466187 86.92193604 C301.19897576 100.36024111 319.4778204 115.47232249 337 132 C337.72703125 132.67289063 338.4540625 133.34578125 339.203125 134.0390625 C349.51723372 143.89197124 357.67068216 155.83359438 365 168 C365.36834961 168.60505371 365.73669922 169.21010742 366.11621094 169.83349609 C390.49518995 210.2290203 398.14797475 255.99643278 387.26855469 302.09960938 C380.14056858 329.73288381 366.71303428 353.80760625 349 376 C348.54608887 376.57105469 348.09217773 377.14210938 347.62451172 377.73046875 C335.42710143 392.90318064 321.38446211 407.07765139 306 419 C304.18556464 420.56025217 302.37320007 422.12291451 300.5625 423.6875 C278.27518211 442.19827622 252.73037894 455.94293964 227 469 C225.87126465 469.57572754 225.87126465 469.57572754 224.71972656 470.16308594 C220.78751203 472.16635798 216.84187267 474.13890195 212.87744141 476.07763672 C211.62949929 476.69073494 210.38433901 477.30952943 209.14208984 477.93408203 C163.87812437 500.67772607 112.71334052 513.44186431 63 522 C61.94455994 522.18209015 61.94455994 522.18209015 60.86779785 522.36785889 C39.68615856 525.99807051 18.44569699 528.5441926 -3 530 C-3.70499634 530.04805786 -4.40999268 530.09611572 -5.13635254 530.14562988 C-21.2839637 531.19875431 -37.44889608 531.24375006 -53.625 531.25 C-54.32596172 531.25058914 -55.02692345 531.25117828 -55.74912643 531.25178528 C-80.26471564 531.26627736 -104.60064539 530.55520369 -129 528 C-130.04794739 527.89108429 -130.04794739 527.89108429 -131.11706543 527.77996826 C-140.78087536 526.76217008 -150.39480401 525.4700338 -160 524 C-160.66483398 523.89901001 -161.32966797 523.79802002 -162.01464844 523.69396973 C-198.32061896 518.15726618 -233.98257414 510.0729029 -269 499 C-270.04864227 498.6706546 -270.04864227 498.6706546 -271.11846924 498.33465576 C-290.5496041 492.22963139 -309.41251088 485.3775348 -328 477 C-329.25827128 476.44223228 -330.51691057 475.88529415 -331.77587891 475.32910156 C-351.47598895 466.60490046 -369.88664071 456.67070672 -388 445 C-389.33369629 444.14680176 -389.33369629 444.14680176 -390.69433594 443.27636719 C-401.48932265 436.34127749 -411.92155238 428.94148549 -422 421 C-422.55510254 420.56349121 -423.11020508 420.12698242 -423.68212891 419.67724609 C-440.08876923 406.59647675 -456.58325527 390.85533245 -468.77099609 373.72509766 C-470.13289044 371.81346766 -471.5289111 369.92917389 -472.92578125 368.04296875 C-500.36667486 330.55674802 -517.93989502 285.86295239 -510.84765625 238.67578125 C-507.85028805 221.35470663 -503.18256017 205.03578909 -496 189 C-495.47599609 187.80600586 -495.47599609 187.80600586 -494.94140625 186.58789062 C-484.82446593 163.66727675 -471.31432741 144.02758497 -454 126 C-453.5138623 125.49194824 -453.02772461 124.98389648 -452.52685547 124.46044922 C-446.58419407 118.28557702 -440.49092501 112.5392334 -433.765625 107.20703125 C-430.86514495 104.89238262 -428.06388844 102.48139073 -425.25 100.0625 C-414.66654177 91.24067546 -402.86982711 84.13013817 -391.00292969 77.18164062 C-388.94206572 75.96582132 -386.89670037 74.72643833 -384.8515625 73.484375 C-363.70277421 60.77675677 -341.19644552 50.36070332 -318 42 C-316.76701172 41.54947266 -315.53402344 41.09894531 -314.26367188 40.63476562 C-278.74294548 27.70080482 -242.41033748 18.45005157 -205.28979492 11.43426514 C-203.05089912 11.00965314 -200.81340839 10.57828015 -198.57617188 10.14501953 C-133.78052975 -2.352877 -65.71392588 -6.10047846 0 0 Z M-143 24 C-143.83692383 24.09430298 -144.67384766 24.18860596 -145.53613281 24.2857666 C-169.88234915 27.05096555 -193.97980423 31.18946793 -218 36 C-219.75449463 36.34901367 -219.75449463 36.34901367 -221.54443359 36.70507812 C-251.96928588 42.89255757 -282.20575997 52.43932083 -311 64 C-312.08909668 64.43666992 -313.17819336 64.87333984 -314.30029297 65.32324219 C-336.89219141 74.46530976 -358.36942273 85.01144669 -379 98 C-380.07121094 98.67417969 -381.14242187 99.34835937 -382.24609375 100.04296875 C-432.08782616 132.46428983 -471.01618152 174.82101344 -483.84667969 234.05249023 C-491.16485271 269.45854815 -481.42492171 304.74012567 -461.97583008 334.53491211 C-448.99808421 354.00982581 -434.06055753 372.00055392 -416 387 C-415.28312012 387.61149902 -415.28312012 387.61149902 -414.55175781 388.23535156 C-382.6760503 415.34423595 -342.69267108 435.62680936 -304 451 C-303.34040283 451.26210266 -302.68080566 451.52420532 -302.0012207 451.79425049 C-276.98937052 461.67757818 -251.43646457 468.90476757 -225.36199951 475.40948486 C-223.2583084 475.93542123 -221.1563742 476.46762841 -219.05517578 477.00341797 C-133.64217844 498.63358703 -41.04150767 500.73782122 251.4375 420.9375 C281.21073543 402.91585469 310.57398942 380.64646527 332 353 C332.41717285 352.48050781 332.8343457 351.96101563 333.26416016 351.42578125 C357.83037188 320.77035291 368.95856519 282.51755583 365.79785156 243.50488281 C365.22285829 238.58163851 364.21088407 233.80262054 363 229 C362.81195801 228.23445801 362.62391602 227.46891602 362.43017578 226.68017578 C357.48363753 207.12619918 348.92990642 189.23936729 337 173 C336.60345215 172.45472656 336.2069043 171.90945313 335.79833984 171.34765625 C321.59849024 151.95727628 305.15166953 133.7583056 285.83789062 119.38476562 C283.8735335 117.90471334 281.94357076 116.38651587 280.015625 114.859375 C261.65239016 100.38627204 241.8853043 89.43186906 221 79 C220.0095166 78.50081055 219.0190332 78.00162109 217.99853516 77.48730469 C156.12962371 46.43112228 87.12647087 32.22843154 18.8125 24.3125 C17.93756897 24.20967712 17.06263794 24.10685425 16.16119385 24.00091553 C-9.9548309 20.95891015 -36.02328099 19.58654703 -62.3125 19.625 C-63.32098621 19.62513784 -63.32098621 19.62513784 -64.34984589 19.62527847 C-90.71251441 19.62990249 -116.79882174 21.01401649 -143 24 Z " fill="#000000" transform="translate(572,249)"/>
<path d="M0 0 C0 0.33 0 0.66 0 1 C-1.27713867 1.18062988 -2.55427734 1.36125977 -3.87011719 1.54736328 C-56.66452654 9.05018015 -106.35416288 20.69081245 -155.4375 41.6875 C-156.5125177 42.14639618 -156.5125177 42.14639618 -157.60925293 42.61456299 C-189.51312158 56.29382743 -217.64827295 73.11349373 -243 97 C-243.8559375 97.79019531 -244.711875 98.58039063 -245.59375 99.39453125 C-256.67448014 109.96681017 -264.7870752 122.5868533 -272 136 C-270.04865249 133.56620013 -268.10179683 131.12969831 -266.17578125 128.67578125 C-244.89798885 101.68822485 -217.63655153 82.00724676 -188 65 C-186.89398438 64.35804688 -185.78796875 63.71609375 -184.6484375 63.0546875 C-165.22725518 52.22617275 -144.19895948 44.52839928 -123 38 C-121.9471582 37.6690332 -120.89431641 37.33806641 -119.80957031 36.99707031 C-93.67152631 28.84112645 -67.00124289 23.63734883 -39.8125 20.5625 C-39.08530762 20.47850952 -38.35811523 20.39451904 -37.60888672 20.3079834 C-27.04405007 19.11279264 -16.62772663 18.8133449 -6 19 C-6 19.33 -6 19.66 -6 20 C-7.20785156 20.17273438 -8.41570312 20.34546875 -9.66015625 20.5234375 C-70.92139208 29.93052721 -135.14620195 52.2147641 -184 91 C-184.91910156 91.71542969 -185.83820313 92.43085938 -186.78515625 93.16796875 C-201.84437486 105.13485837 -211.78657399 118.3919022 -221 135 C-220.67128906 134.47792969 -220.34257812 133.95585937 -220.00390625 133.41796875 C-203.71781088 108.21644989 -181.76797648 92.5696603 -155.74853516 78.49169922 C-153.24086318 77.13072251 -150.74994534 75.74374854 -148.26171875 74.34765625 C-105.50528181 50.68179989 -51.6439416 36.42900301 -2.75 36.9375 C-1.47189453 36.94426758 -1.47189453 36.94426758 -0.16796875 36.95117188 C1.88805281 36.96272256 3.9440371 36.9806447 6 37 C3.224643 38.49963594 0.69697697 39.42039532 -2.38427734 40.078125 C-3.24922318 40.26632309 -4.11416901 40.45452118 -5.00532532 40.64842224 C-5.93942734 40.8469429 -6.87352936 41.04546356 -7.8359375 41.25 C-9.85642127 41.69178432 -11.87667624 42.13461603 -13.89672852 42.57836914 C-14.95465607 42.80976593 -16.01258362 43.04116272 -17.10256958 43.27957153 C-65.24787716 53.87880381 -113.86673637 70.23292458 -151 104 C-151.74507812 104.66257812 -152.49015625 105.32515625 -153.2578125 106.0078125 C-160.03868784 112.36322115 -166.10744871 120.55930984 -170 129 C-169.54753906 128.42894531 -169.09507812 127.85789062 -168.62890625 127.26953125 C-162.07730497 119.47944201 -154.47111576 113.66704736 -146.29248047 107.68212891 C-144.03744394 106.02747484 -141.8010577 104.3500123 -139.56640625 102.66796875 C-102.24796733 74.81703584 -47.79481213 54.48274219 -0.5 54.9375 C1.34078125 54.95103516 1.34078125 54.95103516 3.21875 54.96484375 C4.59546875 54.98224609 4.59546875 54.98224609 6 55 C2.95488598 57.03007601 0.59087695 57.84915652 -2.8984375 58.8828125 C-4.08920898 59.24093018 -5.27998047 59.59904785 -6.50683594 59.96801758 C-7.13746948 60.15619049 -7.76810303 60.3443634 -8.41784668 60.53823853 C-48.76714625 72.63510098 -97.18622954 89.17385965 -119 128 C-120.40683543 130.64200345 -121.72250016 133.29170034 -123 136 C-122.67 136.33 -122.34 136.66 -122 137 C-121.505 136.319375 -121.01 135.63875 -120.5 134.9375 C-117.31409351 131.19405988 -113.75269084 128.16210343 -110 125 C-109.11054688 124.23429687 -108.22109375 123.46859375 -107.3046875 122.6796875 C-68.3769474 89.56515659 -22.52966902 74.42685756 28 70 C29.3360205 69.86802504 30.67197317 69.73535881 32.0078125 69.6015625 C35.67261835 69.2869504 39.32447166 69.10159485 43 69 C43.97501465 68.97276855 44.9500293 68.94553711 45.95458984 68.91748047 C108.98051042 67.45176139 171.54789553 82.35846452 218.5625 126.1875 C226.83011468 134.75251089 238.25098066 149.05916426 240 161 C240.66 161 241.32 161 242 161 C238.71471039 135.46555395 228.27127348 116.98089895 210.91796875 98.1640625 C209 96 209 96 207 93 C230.38217088 100.43369765 256.58587985 113.39357337 270 135 C273.69785115 142.4041642 276.54947294 150.10385724 279 158 C280.15690878 141.51404992 272.75462494 124.487525 262.25097656 112.04736328 C260.06172041 109.55485273 257.82920486 107.10760693 255.56445312 104.68359375 C254.09478792 103.10200647 252.65868403 101.49741937 251.234375 99.875 C247.58424205 95.36262069 247.58424205 95.36262069 243 92 C243 91.34 243 90.68 243 90 C268.49992852 94.0982028 293.58476421 113.3700715 308.80078125 133.60546875 C314.88422044 142.15284229 319.13861774 151.28072533 323 161 C323.391875 161.97710937 323.78375 162.95421875 324.1875 163.9609375 C324.455625 164.63382813 324.72375 165.30671875 325 166 C318.17974393 133.58372407 303.01317283 107.07211699 278 85 C277.34 84.67 276.68 84.34 276 84 C276.33 83.34 276.66 82.68 277 82 C310.89650693 91.69167368 342.03493977 117.41269043 359.16845703 148.06103516 C364.30744448 157.6845257 367.89842639 167.562232 371 178 C371.33 178.99 371.66 179.98 372 181 C366.07788262 139.83406209 346.0599608 111.47130677 316.81835938 82.78662109 C315.20330233 81.19975382 313.59822227 79.60379747 312 78 C317.83265137 78.50549645 322.4463544 79.68637586 327.75 82.125 C328.44319336 82.43775879 329.13638672 82.75051758 329.85058594 83.07275391 C369.37099633 101.24776975 399.55622119 136.21792139 414.5234375 176.55859375 C416.73765859 182.8962794 417.97398223 189.37485669 419 196 C415.22761973 155.44691212 394.47491348 120.40782196 367 91 C365.86111328 89.77990234 365.86111328 89.77990234 364.69921875 88.53515625 C358.89588223 82.52286162 352.6324755 77.40071236 346.00390625 72.34765625 C343.82094692 70.64159831 341.86759316 69.02824633 340 67 C366.44657116 73.26800231 388.41659089 87.72483905 408.46582031 105.63330078 C409.89043692 106.9023975 411.33131206 108.15317876 412.7734375 109.40234375 C428.35558417 123.04271522 440.57652534 139.63182028 450 158 C450.48509033 158.93344238 450.48509033 158.93344238 450.97998047 159.88574219 C455.95512811 169.57110385 459.3382637 179.45297398 462 190 C462.23589844 190.9178125 462.47179687 191.835625 462.71484375 192.78125 C469.64504739 224.75124053 461.75975771 259.12759859 444.37890625 286.44140625 C437.56661096 296.79058453 429.58726685 306.08455735 421 315 C420.44763672 315.57427734 419.89527344 316.14855469 419.32617188 316.74023438 C411.94838129 324.36532521 404.43471806 331.5348665 396 338 C395.40993164 338.45584473 394.81986328 338.91168945 394.21191406 339.38134766 C374.4006146 354.64983264 353.56424693 367.21233222 331 378 C330.2177002 378.37592285 329.43540039 378.7518457 328.62939453 379.13916016 C280.8354908 401.93949345 228.48385918 415.97535787 175.9375 422.3125 C174.71708008 422.45969482 173.49666016 422.60688965 172.23925781 422.75854492 C168.16276263 423.21676186 164.08414403 423.61747513 160 424 C159.11933868 424.08613556 158.23867737 424.17227112 157.33132935 424.26101685 C139.41733238 425.97759242 121.60486037 426.34529306 103.62670898 426.31567383 C100.59986417 426.31106491 97.57342348 426.3179045 94.54663086 426.33618164 C20.17087182 426.78058122 20.17087182 426.78058122 7 418 C15.12955922 416.29918297 23.12103613 415.51959672 31.40625 415.0703125 C34.01385718 414.91623389 36.62144098 414.76175933 39.22900391 414.60693359 C40.59270614 414.52794764 41.95641472 414.44907113 43.32012939 414.37030029 C98.18188614 411.17732846 154.0541321 405.38949349 207 390 C208.09038574 389.69416992 209.18077148 389.38833984 210.30419922 389.07324219 C252.58706259 377.17195771 293.98988078 359.01208731 330.5625 334.625 C332.19312378 333.53819946 332.19312378 333.53819946 333.85668945 332.42944336 C340.90046717 327.63906254 347.49814328 322.49977266 354 317 C353.22325928 317.45487793 352.44651855 317.90975586 351.64624023 318.37841797 C348.4341293 320.25797403 345.21770638 322.13004733 342 324 C340.90558594 324.63679688 339.81117188 325.27359375 338.68359375 325.9296875 C335.13543426 327.97717698 331.5739834 329.99804591 328 332 C327.3915625 332.34256836 326.783125 332.68513672 326.15625 333.03808594 C268.677932 365.16008344 202.25993391 381.39276936 137 387 C136.02047363 387.0942627 135.04094727 387.18852539 134.03173828 387.28564453 C121.59115913 388.35602836 109.10223722 388.24194072 96.625 388.25 C95.40367371 388.25133942 94.18234741 388.25267883 92.92401123 388.25405884 C37.72281366 388.24093789 37.72281366 388.24093789 16 381 C16 380.34 16 379.68 16 379 C24.80357076 377.77037793 33.56657143 376.93143521 42.44140625 376.44921875 C59.20354848 375.5270297 75.86940642 373.88749114 92.5625 372.125 C94.35060593 371.94040222 94.35060593 371.94040222 96.17483521 371.7520752 C118.90771349 369.39372008 141.00851896 365.46221059 163.25 360.25 C164.17955505 360.03312531 165.10911011 359.81625061 166.0668335 359.59280396 C181.26972516 356.03124646 196.21589963 352.05668998 211 347 C212.04736328 346.64583008 213.09472656 346.29166016 214.17382812 345.92675781 C228.49016774 341.0499049 242.35760123 335.52438652 256 329 C256.82306641 328.61231445 257.64613281 328.22462891 258.49414062 327.82519531 C277.82378044 318.68441676 298.94892364 307.50452384 314 292 C313.18144531 292.47566406 312.36289062 292.95132812 311.51953125 293.44140625 C256.21985126 325.22937055 197.82163317 344.41748534 134 349 C132.21154663 349.13027588 132.21154663 349.13027588 130.38696289 349.26318359 C118.49103221 350.07483638 106.60837516 350.2406542 94.6875 350.25 C93.67018799 350.25133942 92.65287598 350.25267883 91.60473633 350.25405884 C77.6891874 350.25011945 63.86751007 349.86429859 50 348.6875 C49.28476166 348.62864624 48.56952332 348.56979248 47.83261108 348.50915527 C38.05728201 347.67989704 28.5743764 346.10213275 19 344 C21.89471565 342.37813694 24.19949865 341.69084716 27.49755859 341.40917969 C28.39160904 341.32834641 29.28565948 341.24751312 30.20680237 341.16423035 C31.17754196 341.08425308 32.14828156 341.00427582 33.1484375 340.921875 C35.26735366 340.73207169 37.38624924 340.54203862 39.50512695 340.35180664 C41.18380356 340.20535202 41.18380356 340.20535202 42.89639282 340.05593872 C122.84210433 333.02482326 218.26772465 322.33235076 280 265 C280 264.67 280 264.34 280 264 C279.16082031 264.59425781 278.32164062 265.18851563 277.45703125 265.80078125 C244.28349335 288.85693176 205.31355601 301.1388532 166 309 C165.26749023 309.14775879 164.53498047 309.29551758 163.78027344 309.44775391 C141.33035236 313.82358598 116.86131905 316.14283554 94 315 C93.01628418 314.95746094 92.03256836 314.91492188 91.01904297 314.87109375 C70.47003326 313.92365899 50.30426133 311.15143746 30 308 C30.33 307.34 30.66 306.68 31 306 C32.91459656 305.57208252 32.91459656 305.57208252 35.4675293 305.31738281 C36.42731186 305.21653381 37.38709442 305.11568481 38.3759613 305.01177979 C39.43138626 304.90992371 40.48681122 304.80806763 41.57421875 304.703125 C43.83628357 304.46764523 46.09832695 304.23195946 48.36035156 303.99609375 C50.15382019 303.81409424 50.15382019 303.81409424 51.98352051 303.62841797 C113.90486727 297.30220847 188.01735908 288.74848662 237 246 C238.24716797 244.9171875 238.24716797 244.9171875 239.51953125 243.8125 C245.23332376 238.75697852 250.66458128 233.45140608 256 228 C253.29350894 229.80432737 250.71084995 231.72202709 248.11547852 233.68041992 C235.59220966 243.06375306 222.08871188 250.2644477 208 257 C206.94039062 257.51304687 205.88078125 258.02609375 204.7890625 258.5546875 C158.46110027 279.71684309 103.95482265 283.53367861 54 276.625 C53.19547394 276.51422119 52.39094788 276.40344238 51.56204224 276.28930664 C38.43358958 274.43358958 38.43358958 274.43358958 36 272 C45.26988534 270.49677535 54.54047977 269.12781749 63.87890625 268.12109375 C119.09909324 262.14570284 178.19637259 248.04960719 216.171875 204.28515625 C219.04532973 200.69333783 221.566184 196.899637 224 193 C221.51574549 194.97149024 219.05157972 196.95625087 216.6328125 199.0078125 C181.22321886 228.90189311 135.4955847 244.30640051 90 250 C88.98550781 250.13277344 87.97101563 250.26554688 86.92578125 250.40234375 C63.60086804 252.88806443 30.54531987 253.77265993 9 243 C9.72752421 238.82565636 10.93471676 234.9227311 12.265625 230.90234375 C12.49533493 230.20779587 12.72504486 229.51324799 12.9617157 228.7976532 C13.72054556 226.50960613 14.48477913 224.22341704 15.25 221.9375 C15.51233429 221.1509906 15.77466858 220.3644812 16.04495239 219.55413818 C21.37695228 203.58851742 27.05108842 187.75337713 32.83255005 171.94587708 C35.25804062 165.31015171 37.6342234 158.65723107 40 152 C40.7748877 151.98018066 41.54977539 151.96036133 42.34814453 151.93994141 C75.27770921 151.22549108 75.27770921 151.22549108 105 138 C105.928125 137.4225 106.85625 136.845 107.8125 136.25 C111.73866111 132.21166285 114.57349864 127.31230929 115.30078125 121.6640625 C114.9822902 115.40406608 112.13198264 110.58549293 108 106 C91.62601632 91.7443289 69.84568781 89.2122603 48.9375 90.1875 C35.29154167 91.45361984 17.93077935 94.9931467 8.25 105.5625 C4.27109245 110.61168332 3.75709415 116.12598986 3.875 122.375 C3.89304687 123.62023437 3.91109375 124.86546875 3.9296875 126.1484375 C3.95289063 127.08945312 3.97609375 128.03046875 4 129 C2.66666667 129.66666667 1.33333333 130.33333333 0 131 C-0.91136719 131.45890625 -1.82273437 131.9178125 -2.76171875 132.390625 C-5.08968148 133.54758597 -7.42217952 134.68095003 -9.76953125 135.796875 C-23.19153317 142.23713876 -34.71898002 150.10251416 -45.44238281 160.49365234 C-47.09205772 162.0890276 -48.76100111 163.66282018 -50.4296875 165.23828125 C-58.5419257 173.00546368 -66.93030026 181.17533392 -67.375 193.0625 C-67.19736327 203.48840962 -61.34191772 210.28044326 -54.57104492 217.62255859 C-53.30881449 219.01998974 -52.14489663 220.50492436 -51 222 C-51.33 222.99 -51.66 223.98 -52 225 C-66.8827554 220.53311491 -79.313833 214.51020051 -91 204 C-91.69609375 203.38640625 -92.3921875 202.7728125 -93.109375 202.140625 C-101.52934024 194.25953754 -109.267117 184.32194385 -112 173 C-113.58617566 191.72568483 -104.1019309 210.0150398 -92.5 224.10546875 C-80.84361864 237.60137279 -66.52939344 248.26394502 -51.58203125 257.87109375 C-51.05996094 258.24363281 -50.53789062 258.61617187 -50 259 C-50 259.33 -50 259.66 -50 260 C-56.68660262 260.2546001 -62.22364593 259.52069318 -68.625 257.625 C-69.52307373 257.36170898 -70.42114746 257.09841797 -71.34643555 256.82714844 C-93.11609241 250.16231605 -112.87657504 240.04300884 -130 225 C-130.82757813 224.29359375 -131.65515625 223.5871875 -132.5078125 222.859375 C-141.69061396 214.85680821 -150.87077207 206.22195724 -156 195 C-154.36304138 208.89744463 -147.6641301 221.25379213 -139 232 C-138.39671875 232.804375 -137.7934375 233.60875 -137.171875 234.4375 C-121.39450351 255.12044078 -99.61319566 271.06085096 -77.3046875 284.05859375 C-73.10267078 286.5271544 -68.88692539 289.05057152 -65 292 C-65 292.33 -65 292.66 -65 293 C-71.90220641 293.32985455 -77.99579755 292.13805685 -84.6875 290.5 C-85.78529785 290.23227783 -86.8830957 289.96455566 -88.01416016 289.6887207 C-117.24391702 282.28100607 -146.80533411 268.40589576 -170 249 C-170.87180908 248.27828613 -170.87180908 248.27828613 -171.76123047 247.54199219 C-182.8170739 238.36077107 -192.69381761 229.56851311 -200 217 C-190.04084044 248.51549835 -165.70693814 271.80671903 -139 290 C-138.13552246 290.59683594 -137.27104492 291.19367188 -136.38037109 291.80859375 C-125.23074864 299.49210702 -113.90146397 306.55285659 -102 313 C-99.42971098 314.40302417 -96.8690251 315.82207977 -94.3125 317.25 C-92.66701172 318.15492188 -92.66701172 318.15492188 -90.98828125 319.078125 C-87.87527461 321.08021555 -85.51330645 323.2955144 -83 326 C-90.58153294 326.37460223 -97.28463354 325.34717512 -104.625 323.5 C-106.249823 323.0973291 -106.249823 323.0973291 -107.9074707 322.68652344 C-159.45035331 309.55714756 -212.70440131 280.97324289 -242 235 C-244.09879866 231.38108378 -246.09640753 227.72506918 -248 224 C-240.50868663 241.45251481 -232.57062868 257.86772829 -221 273 C-220.33226562 273.88042969 -219.66453125 274.76085937 -218.9765625 275.66796875 C-211.53728116 285.21757683 -203.40829138 294.35674821 -194 302 C-193.4848584 302.42748535 -192.9697168 302.8549707 -192.43896484 303.29541016 C-172.45936638 319.86563566 -150.26638136 331.81855719 -127.484375 344.03515625 C-126.8857515 344.35642487 -126.28712799 344.67769348 -125.67036438 345.00869751 C-122.82455098 346.53539098 -119.97635403 348.05725765 -117.1237793 349.57128906 C-116.11226807 350.11108398 -115.10075684 350.65087891 -114.05859375 351.20703125 C-113.17486084 351.6760083 -112.29112793 352.14498535 -111.38061523 352.62817383 C-109.08647412 353.95016941 -107.00690891 355.27127072 -105 357 C-105 357.66 -105 358.32 -105 359 C-144.41281398 359.4621268 -186.58800695 337.67017482 -219 317 C-219.60118652 316.61859863 -220.20237305 316.23719727 -220.82177734 315.84423828 C-250.97725726 296.58982676 -277.00734324 270.59952503 -294 239 C-288.17213606 255.56941707 -281.49942063 271.79721899 -271 286 C-270.24074219 287.04285156 -269.48148437 288.08570313 -268.69921875 289.16015625 C-262.67793992 297.28699836 -256.0026505 304.71278531 -249 312 C-248.14277344 312.89847656 -247.28554687 313.79695313 -246.40234375 314.72265625 C-232.23211222 329.25219635 -215.30320732 341.44789545 -198 352 C-197.3920459 352.3727002 -196.7840918 352.74540039 -196.15771484 353.12939453 C-177.83091646 364.30104835 -158.70332027 374.14914469 -139.64794922 384.00537109 C-134.04308065 386.90842675 -128.49921473 389.90129601 -123 393 C-123 393.33 -123 393.66 -123 394 C-171.45536724 398.18520446 -233.63634419 362.9328218 -270 334 C-271.39605469 332.89205078 -271.39605469 332.89205078 -272.8203125 331.76171875 C-279.07503897 326.71786551 -285.14018318 321.49778791 -291 316 C-291.78697266 315.26402588 -291.78697266 315.26402588 -292.58984375 314.51318359 C-318.87164454 289.72604642 -340.00890023 256.76369617 -341.3359375 219.6953125 C-341.8629843 181.35120981 -330.69699345 149.38914124 -306 120 C-304.94259702 118.71884186 -303.88530118 117.43759529 -302.828125 116.15625 C-294.30526103 105.93264128 -285.22508583 96.52028202 -274.77734375 88.2265625 C-272.94692326 86.75913679 -271.14592841 85.2541193 -269.37890625 83.7109375 C-200.93206238 24.09907631 -89.15727671 -0.56788074 0 0 Z M-274 138 C-273 140 -273 140 -273 140 Z M-202 213 C-201 215 -201 215 -201 215 Z M285 259 C284.01 260.485 284.01 260.485 283 262 C284.32 261.34 285.64 260.68 287 260 C286.34 259.67 285.68 259.34 285 259 Z M326 281 C325.67 281.66 325.34 282.32 325 283 C325.99 282.67 326.98 282.34 328 282 C327.34 281.67 326.68 281.34 326 281 Z M320 286 C319.67 286.66 319.34 287.32 319 288 C319.99 287.67 320.98 287.34 322 287 C321.34 286.67 320.68 286.34 320 286 Z M358 312 C356.36323743 313.9600281 356.36323743 313.9600281 355 316 C358.12197478 314.6910428 358.12197478 314.6910428 360 312 C359.34 312 358.68 312 358 312 Z " fill="#000000" transform="translate(451,286)"/>
<path d="M0 0 C2.39504463 2.73719387 2.94033882 3.92690898 3.1875 7.5 C-0.0485814 13.39076513 -5.55213746 17.32728594 -11.8125 19.5 C-21.45577016 22.10914805 -35.82153777 22.40777326 -44.82421875 17.8984375 C-49.50599639 14.60555657 -53.20401114 11.03537027 -54.5625 5.375 C-53.56043853 1.53376437 -51.77445074 -0.95362909 -48.8125 -3.5 C-34.51629556 -11.66925968 -13.07511718 -9.90824228 0 0 Z " fill="#000000" transform="translate(535.8125,399.5)"/>
</svg>
