<?xml version="1.0" standalone="no"?>
<!DOCTYPE svg PUBLIC "-//W3C//DTD SVG 20010904//EN"
 "http://www.w3.org/TR/2001/REC-SVG-20010904/DTD/svg10.dtd">
<svg version="1.0" xmlns="http://www.w3.org/2000/svg"
 width="1024.000000pt" height="1024.000000pt" viewBox="0 0 1024.000000 1024.000000"
 preserveAspectRatio="xMidYMid meet">

<g transform="translate(0.000000,1024.000000) scale(0.100000,-0.100000)"
fill="#000000" stroke="none">
<path d="M4904 9716 c-31 -14 -57 -42 -85 -94 -18 -33 -10 -31 -262 -57 -324
-34 -703 -131 -1027 -262 -276 -112 -491 -234 -804 -456 -104 -73 -138 -89
-151 -68 -12 20 -89 23 -133 6 -61 -25 -105 -82 -153 -202 l-42 -104 -72 -49
c-112 -76 -145 -126 -145 -225 0 -36 -11 -54 -112 -180 -61 -77 -144 -171
-183 -210 -99 -97 -106 -109 -103 -186 l3 -64 -96 -155 c-168 -271 -214 -375
-295 -672 -72 -268 -113 -397 -192 -608 -75 -203 -119 -371 -157 -595 -15 -88
-35 -184 -46 -213 -15 -42 -19 -80 -19 -193 0 -77 -5 -149 -10 -160 -6 -10
-24 -26 -40 -34 -52 -27 -70 -54 -70 -107 0 -69 22 -112 74 -149 51 -36 49
-31 72 -219 41 -347 129 -700 233 -935 56 -128 54 -154 -63 -695 -31 -140 -74
-360 -96 -488 -22 -128 -44 -241 -49 -250 -5 -9 -30 -37 -55 -62 -50 -48 -77
-108 -101 -222 -8 -38 -24 -86 -35 -108 -28 -56 -26 -99 9 -147 l29 -40 -38
-96 c-21 -52 -45 -108 -54 -125 -28 -55 -36 -112 -20 -144 40 -78 304 -133
406 -84 59 29 72 66 76 240 l4 149 32 42 c18 23 38 62 44 86 23 91 62 275 62
292 0 10 -16 55 -36 100 l-37 82 12 84 c28 196 132 754 150 803 6 17 23 -8 89
-133 120 -226 237 -405 403 -620 18 -23 19 -29 8 -71 -10 -36 -10 -58 -1 -97
9 -39 9 -59 -2 -94 -11 -37 -11 -51 0 -83 26 -78 96 -104 180 -69 32 13 39 13
64 0 36 -19 58 -19 94 0 15 8 35 15 43 15 8 0 51 -34 96 -75 317 -291 805
-590 1252 -768 378 -151 978 -277 1317 -277 66 0 68 -1 84 -33 26 -51 53 -75
107 -93 40 -13 57 -14 87 -5 50 15 87 45 110 92 19 36 23 39 65 39 62 0 256
26 415 56 334 62 702 192 1101 391 312 154 524 291 887 572 156 121 164 126
215 129 88 4 121 4 160 -3 31 -6 45 -3 77 19 58 38 74 76 59 135 -9 36 -9 62
0 115 11 61 19 77 80 154 135 173 265 373 417 645 102 181 112 195 118 176 30
-85 175 -802 183 -899 5 -82 4 -89 -28 -160 -42 -96 -43 -147 -1 -308 35 -134
57 -185 95 -220 25 -23 25 -26 20 -140 -9 -191 19 -269 104 -287 48 -10 243
23 289 49 29 16 43 32 54 64 15 43 14 45 -33 180 -26 75 -47 147 -47 158 0 12
14 38 30 59 37 46 38 75 5 157 -13 35 -36 108 -51 163 -29 110 -46 143 -98
194 -43 41 -49 63 -122 387 -29 133 -71 315 -93 405 -58 241 -89 399 -106 539
-24 202 -21 251 30 439 56 211 99 423 125 624 11 87 20 159 20 162 0 2 15 8
33 14 18 6 53 32 78 57 42 43 44 48 44 103 0 52 -5 65 -38 114 l-39 56 -3 260
c-3 228 -1 270 15 337 27 111 12 177 -70 314 -31 52 -44 90 -65 190 -35 168
-69 224 -147 249 -32 11 -37 17 -43 54 -14 92 -59 279 -97 412 -155 535 -432
1030 -803 1435 -80 86 -206 243 -247 307 -9 15 -24 59 -33 98 -24 111 -73 177
-158 213 -15 7 -70 12 -122 12 l-94 0 -93 63 c-51 35 -120 82 -153 104 -256
174 -641 344 -973 429 -243 62 -578 115 -825 130 -110 6 -119 9 -137 32 -11
13 -20 30 -20 37 0 27 -50 58 -98 61 -27 2 -68 8 -93 13 -60 14 -108 13 -145
-3z m171 -116 c3 -5 -6 -86 -22 -180 -28 -175 -34 -187 -76 -174 -18 6 -19 12
-13 83 9 93 42 249 57 267 13 16 45 18 54 4z m-155 -171 c0 -39 -86 -66 -316
-99 -589 -86 -835 -156 -1239 -355 -246 -121 -409 -231 -659 -444 -66 -55
-120 -100 -121 -99 -1 2 0 30 3 63 l5 60 90 75 c381 314 728 499 1212 645 211
63 406 102 675 135 96 11 198 25 225 29 28 5 67 9 88 10 31 1 37 -2 37 -20z
m636 -24 c267 -33 557 -96 779 -170 408 -136 894 -403 1091 -599 80 -80 143
-166 121 -166 -14 0 -146 88 -243 162 -94 71 -339 230 -454 294 -231 127 -451
223 -646 279 -213 62 -552 115 -854 134 -85 5 -163 13 -172 16 -17 7 -23 39
-13 67 6 16 189 8 391 -17z m-816 -234 c0 -5 -17 -42 -37 -83 -36 -70 -38 -78
-41 -188 -2 -63 -8 -120 -13 -126 -6 -7 -47 -15 -92 -19 -516 -42 -1176 -252
-1682 -534 -124 -70 -410 -252 -523 -334 -30 -21 -55 -37 -58 -35 -7 7 120
209 161 256 66 75 311 298 411 372 289 218 641 402 993 519 208 70 365 107
616 145 245 38 265 40 265 27z m708 -16 c311 -35 479 -64 689 -120 89 -23 299
-100 316 -115 5 -5 -24 -13 -65 -20 -73 -12 -287 -58 -366 -80 -43 -11 -52
-23 -29 -37 20 -13 117 -53 192 -79 110 -38 334 -128 330 -132 -2 -2 -61 10
-132 26 -540 128 -758 164 -1079 178 l-161 7 -17 67 c-26 107 -22 174 14 231
16 27 32 60 36 74 8 31 -8 31 272 0z m-508 -20 c16 -9 37 -30 46 -47 22 -42
31 -187 14 -228 -17 -40 -30 -38 -30 4 0 41 -38 91 -77 100 -51 13 -113 -35
-113 -89 0 -26 -23 -11 -32 21 -5 16 -6 54 -3 84 13 126 107 200 195 155z m-5
-445 c34 -13 55 -64 55 -134 0 -74 -19 -95 -90 -103 -74 -7 -80 2 -83 115 -2
98 6 118 51 125 15 2 30 5 34 6 4 0 18 -3 33 -9z m2699 -17 c3 -16 13 -68 21
-118 21 -115 44 -191 65 -210 14 -13 20 -12 53 5 43 23 62 18 97 -27 l21 -28
-23 -9 c-13 -5 -52 -22 -87 -39 l-64 -30 -23 26 c-45 52 -94 256 -94 390 0 51
3 67 14 67 8 0 17 -12 20 -27z m-5174 -134 c-37 -94 -60 -115 -98 -90 -14 8
-11 13 84 161 l29 45 3 -31 c2 -17 -7 -55 -18 -85z m3024 -21 c227 -16 561
-84 811 -165 347 -112 788 -323 1010 -482 124 -89 335 -262 335 -276 0 -8 -3
-15 -7 -15 -6 0 -83 49 -353 225 -208 136 -321 202 -497 289 -407 202 -749
307 -1228 376 -230 33 -257 38 -250 51 6 9 14 9 179 -3z m-3143 -187 c19 -15
24 -30 27 -85 2 -36 2 -66 -2 -66 -3 0 -29 11 -58 24 -29 14 -65 28 -80 31
-32 6 -35 21 -12 54 17 24 71 61 90 61 7 0 22 -8 35 -19z m2409 -31 c0 -5 14
-17 32 -26 32 -16 146 -16 368 2 125 10 397 -26 690 -91 679 -151 1289 -486
1786 -980 330 -328 577 -720 762 -1210 154 -408 220 -743 229 -1151 10 -448
-42 -796 -177 -1202 -246 -737 -807 -1444 -1490 -1877 -419 -265 -927 -453
-1397 -517 -143 -19 -213 -22 -473 -23 -299 0 -346 3 -592 41 -395 59 -798
188 -1148 365 -357 181 -595 350 -878 624 -512 495 -817 1018 -982 1685 -194
778 -88 1676 284 2419 182 362 389 639 716 957 426 414 1031 750 1615 898 252
63 655 117 655 86z m3185 -259 c56 -105 62 -131 27 -131 -24 0 -40 18 -90 106
-52 89 -59 116 -36 138 23 23 31 15 99 -113z m-5765 73 c0 -12 -163 -199 -174
-199 -6 0 -12 8 -14 17 -4 23 144 188 169 188 10 0 19 -3 19 -6z m-269 -392
c54 -35 73 -57 65 -77 -8 -22 -28 -19 -73 13 -82 56 -98 72 -83 82 24 16 44
12 91 -18z m6223 -3 c28 -22 35 -64 16 -99 -11 -20 -88 -70 -108 -70 -17 0
-54 68 -48 88 4 10 17 29 30 41 14 13 22 29 20 36 -5 13 12 21 47 24 9 0 28
-8 43 -20z m-5952 -197 c32 -33 58 -67 58 -78 0 -10 -17 -39 -38 -63 -34 -39
-41 -43 -67 -37 -35 9 -149 119 -143 138 6 17 105 98 120 98 6 0 37 -26 70
-58z m5714 20 c11 -9 33 -34 48 -54 l28 -37 -32 -44 c-48 -67 -69 -73 -126
-34 -26 18 -53 41 -61 53 -12 18 -8 25 44 77 31 31 62 57 67 57 6 0 20 -8 32
-18z m-6162 -213 c-90 -145 -212 -329 -219 -329 -6 0 53 110 128 237 58 99
155 229 163 220 3 -2 -30 -60 -72 -128z m6653 -200 c154 -186 312 -433 393
-619 31 -70 104 -310 97 -317 -3 -2 -57 97 -120 221 -139 270 -251 458 -393
658 -67 93 -104 154 -100 164 9 24 27 8 123 -107z m676 -1036 c39 -123 48
-166 38 -176 -25 -25 -68 69 -78 171 -5 43 -3 52 10 52 10 0 21 -18 30 -47z
m115 -365 c7 -7 12 -26 12 -43 0 -37 -15 -55 -46 -55 -25 0 -54 34 -54 62 0
39 60 64 88 36z m24 -298 c7 -34 3 -158 -8 -230 -8 -49 -18 -24 -38 91 -17
104 -20 161 -9 173 18 18 48 0 55 -34z m-103 -519 c11 -7 12 -23 7 -67 -13
-108 -9 -104 -86 -104 -79 0 -80 1 -80 100 0 45 4 70 13 73 21 9 131 7 146 -2z
m-7989 -38 c3 -3 5 -38 5 -80 0 -88 -12 -103 -82 -103 -37 0 -45 4 -53 26 -15
38 -13 161 3 167 14 5 119 -3 127 -10z m8140 -39 c0 -36 -10 -43 -29 -20 -9
10 -9 20 0 40 15 33 29 24 29 -20z m-1215 -2678 c68 -61 68 -63 -4 -146 l-37
-43 -32 17 c-56 29 -102 76 -102 105 0 31 73 121 99 121 9 0 44 -24 76 -54z
m-5845 -23 c68 -61 70 -71 19 -116 -24 -22 -62 -48 -84 -59 l-39 -21 -27 32
c-15 18 -35 48 -45 67 l-18 34 49 50 c62 62 88 65 145 13z m-1168 -259 c29
-15 30 -18 23 -62 -4 -25 -19 -82 -33 -126 -34 -102 -56 -119 -125 -92 -25 9
-48 24 -51 33 -6 15 47 220 66 257 8 15 17 17 50 12 22 -4 54 -14 70 -22z
m8315 -109 c46 -173 47 -169 -33 -191 l-67 -18 -18 23 c-41 50 -78 258 -49
276 19 12 103 34 120 32 10 -2 25 -40 47 -122z m-4133 -861 c10 -10 16 -33 16
-65 0 -70 -29 -99 -100 -99 -41 0 -56 5 -77 26 -22 22 -25 32 -21 74 3 27 11
56 18 65 18 21 142 21 164 -1z"/>
<path d="M3795 8756 c-49 -24 -99 -51 -110 -60 -19 -17 -19 -17 10 -11 50 11
228 89 233 103 7 23 -42 11 -133 -32z"/>
</g>
</svg>
