<?xml version="1.0" standalone="no"?>
<!DOCTYPE svg PUBLIC "-//W3C//DTD SVG 20010904//EN"
 "http://www.w3.org/TR/2001/REC-SVG-20010904/DTD/svg10.dtd">
<svg version="1.0" xmlns="http://www.w3.org/2000/svg"
 width="1024.000000pt" height="1024.000000pt" viewBox="0 0 1024.000000 1024.000000"
 preserveAspectRatio="xMidYMid meet">

<g transform="translate(0.000000,1024.000000) scale(0.100000,-0.100000)"
fill="#000000" stroke="none">
<path d="M4840 8943 c-567 -20 -1359 -116 -1818 -218 -855 -191 -1473 -513
-1778 -927 -138 -188 -190 -396 -150 -598 38 -184 109 -305 285 -480 190 -189
372 -313 691 -473 300 -150 613 -262 1009 -361 123 -31 227 -59 232 -62 21
-12 6 -109 -17 -118 -38 -15 -365 68 -644 163 -493 167 -792 321 -1150 591
-63 48 -143 115 -177 150 -110 111 -282 385 -299 477 -4 19 -1 47 7 64 13 33
13 61 1 224 -7 97 -8 100 -35 113 -23 11 -38 12 -75 2 -71 -17 -72 -20 -72
-132 0 -92 -2 -102 -25 -130 -20 -23 -25 -41 -25 -82 0 -66 14 -106 59 -175
59 -89 60 -93 67 -224 l7 -127 -39 -34 -39 -34 1 -83 0 -82 44 -38 43 -37 8
-179 c4 -98 15 -356 24 -573 8 -217 17 -411 20 -431 6 -44 -4 -54 -62 -63 -37
-5 -43 -4 -43 11 0 10 9 24 21 31 19 12 20 20 17 177 -3 180 -10 202 -74 235
-49 25 -233 20 -315 -8 -116 -40 -125 -59 -121 -254 2 -93 3 -99 33 -133 35
-40 27 28 73 -600 22 -292 22 -293 65 -336 47 -48 90 -59 239 -66 118 -6 122
-6 122 -28 0 -26 36 -75 55 -75 27 0 26 -20 -2 -44 -26 -23 -28 -29 -26 -99 1
-42 6 -85 13 -96 18 -35 59 -54 128 -60 l67 -6 37 -105 c48 -131 104 -250 162
-340 42 -64 45 -73 39 -118 -5 -44 -3 -50 26 -78 28 -26 31 -35 31 -87 0 -77
27 -107 95 -107 65 0 85 13 85 56 l0 35 78 -78 c158 -158 419 -336 685 -468
293 -146 590 -248 1067 -366 48 -12 55 -17 58 -41 5 -43 45 -68 108 -68 63 0
104 14 104 35 0 19 -8 19 172 -10 385 -62 713 -85 1215 -85 497 0 752 20 1182
92 116 19 126 19 152 4 32 -19 116 -21 153 -5 14 7 29 24 34 39 9 25 20 30
123 55 158 38 497 152 658 220 447 189 859 451 1069 680 32 36 62 65 66 65 3
0 6 -11 6 -25 0 -54 113 -72 156 -24 12 13 19 41 22 82 4 51 10 68 34 96 26
29 29 39 24 73 -6 36 -1 47 59 137 107 161 186 358 229 569 22 109 24 114 59
138 50 33 57 51 57 137 0 66 -2 76 -26 98 l-26 24 4 163 5 163 34 28 c31 26
33 33 37 101 4 63 1 80 -18 115 l-23 42 37 778 36 779 35 32 35 32 0 91 c0 89
0 91 -30 113 l-30 22 0 109 c0 103 2 114 39 205 44 110 61 181 61 252 0 41 -5
55 -30 83 -28 32 -30 40 -30 111 0 68 -3 80 -24 101 -31 31 -85 41 -123 23
-25 -12 -29 -19 -36 -83 -4 -39 -12 -89 -17 -113 -15 -62 -12 -139 6 -173 13
-25 13 -39 4 -81 -27 -130 -115 -329 -208 -473 -85 -133 -302 -334 -507 -472
-180 -121 -495 -289 -521 -279 -8 3 -14 20 -14 40 0 67 13 82 112 132 300 151
557 331 736 518 116 122 182 214 243 341 68 143 83 206 84 355 0 103 -4 138
-23 200 -130 417 -624 766 -1430 1011 -813 246 -1824 367 -2782 332z m1085
-317 c942 -90 1645 -260 2169 -523 307 -154 555 -374 665 -591 75 -148 80
-354 11 -509 -127 -288 -539 -573 -1114 -772 -678 -234 -1474 -341 -2546 -341
-1277 0 -2349 200 -3088 576 -388 198 -619 422 -672 653 -19 79 -8 211 24 294
88 233 376 483 796 693 578 288 1325 446 2545 538 28 2 273 2 545 1 364 -2
540 -7 665 -19z m2969 -2168 c23 -32 22 -165 -1 -190 -23 -25 -69 -24 -84 3
-18 34 -8 163 15 188 25 27 51 27 70 -1z m192 -675 c-14 -301 -29 -613 -32
-693 -7 -141 -8 -146 -35 -178 -27 -30 -29 -39 -29 -111 0 -77 1 -80 33 -107
l32 -27 0 -137 0 -138 -33 62 c-36 67 -87 134 -96 125 -7 -6 -34 -456 -42
-679 -6 -196 -9 -213 -40 -250 -15 -17 -34 -56 -44 -88 l-18 -57 -1 74 c-1 73
-1 74 36 106 37 32 38 34 41 114 4 75 2 85 -19 107 -21 22 -23 34 -21 92 2 37
11 254 22 482 11 228 22 504 26 613 l7 199 36 34 c34 32 36 36 39 113 4 78 3
81 -26 110 l-30 30 9 198 c4 109 8 199 9 200 0 2 18 14 40 28 71 45 104 144
76 226 l-16 46 48 79 47 80 3 -53 c2 -28 -8 -298 -22 -600z m-7674 530 c23
-26 31 -164 12 -192 -17 -24 -52 -27 -79 -7 -16 11 -20 29 -23 88 -3 63 -1 77
18 101 25 31 50 35 72 10z m-191 -200 c-17 -36 -13 -113 8 -158 17 -37 63 -86
107 -111 16 -10 19 -31 27 -207 l9 -197 -26 -31 c-23 -27 -26 -39 -26 -104 0
-68 2 -77 30 -108 l30 -34 15 -454 c9 -250 19 -542 23 -649 7 -189 6 -196 -15
-237 -17 -30 -23 -59 -23 -103 0 -57 2 -63 40 -104 37 -40 40 -48 40 -97 l-1
-54 -18 45 c-9 25 -30 65 -46 90 -24 37 -30 60 -35 130 -7 94 -65 280 -88 280
-7 0 -38 -9 -69 -20 -74 -26 -75 -26 -71 12 3 30 7 33 76 56 105 35 107 40 98
262 -4 96 -13 270 -21 387 -15 235 -24 272 -82 308 -30 18 -32 24 -33 75 0 30
-9 285 -20 565 -11 281 -20 534 -20 564 l0 54 51 -68 c45 -60 49 -71 40 -92z
m7483 -348 c-6 -147 -9 -165 -23 -159 -9 3 -24 9 -33 11 -14 4 -18 16 -18 59
0 30 -4 54 -10 54 -5 0 -56 -29 -114 -64 -416 -258 -1058 -497 -1575 -588
-153 -26 -151 -25 -151 -131 0 -49 7 -75 30 -121 44 -85 37 -187 -14 -246 -11
-12 -17 -146 -27 -687 l-12 -671 22 -53 c31 -72 26 -152 -12 -202 -23 -31 -27
-45 -27 -102 l0 -67 33 7 c83 18 324 88 432 125 449 155 867 373 1140 593 81
65 153 137 172 172 11 18 12 19 52 0 l41 -18 0 -93 c0 -51 -4 -96 -10 -99 -6
-3 -10 4 -10 17 0 14 -6 32 -12 41 -12 15 -20 11 -83 -44 -401 -349 -932 -608
-1586 -773 l-214 -55 -8 -70 c-5 -39 -12 -71 -16 -71 -3 0 -5 33 -4 73 2 39 4
131 6 202 3 113 6 135 25 165 29 47 30 131 1 185 -19 37 -20 51 -15 170 4 72
11 386 17 698 10 563 10 569 32 599 33 44 32 153 -2 199 -24 32 -24 34 -18
216 3 101 7 186 9 189 3 2 31 7 64 10 53 6 66 3 114 -21 54 -28 56 -28 130
-15 206 34 599 151 841 251 268 110 604 301 779 442 30 24 56 43 58 42 2 -2 0
-78 -4 -170z m-6997 -59 c142 -86 411 -217 597 -290 270 -107 625 -208 836
-238 78 -11 82 -10 150 17 61 25 77 27 137 21 37 -4 68 -8 69 -9 1 -1 3 -85 5
-187 2 -175 1 -187 -19 -220 -32 -51 -31 -144 2 -193 l25 -36 8 -693 9 -693
-24 -45 c-31 -59 -28 -154 6 -200 20 -26 24 -49 32 -177 12 -191 12 -300 -1
-258 -5 17 -12 59 -15 95 l-6 65 -107 23 c-146 32 -399 105 -561 162 -478 168
-818 351 -1108 597 -66 55 -82 59 -82 17 0 -13 -4 -24 -10 -24 -6 0 -10 36
-10 88 l0 89 40 16 40 15 41 -48 c22 -26 79 -79 127 -118 243 -195 607 -384
1042 -539 116 -41 488 -153 510 -153 21 0 10 102 -16 156 -34 70 -32 165 5
215 l24 32 -9 676 -9 676 -23 31 c-17 22 -24 49 -29 102 -5 64 -3 77 21 126
24 49 26 64 24 143 l-3 87 -80 13 c-547 86 -886 184 -1310 380 -83 38 -200 97
-262 130 l-112 61 -3 -61 -3 -60 -43 -15 c-24 -8 -45 -12 -46 -11 -2 2 -7 80
-11 173 l-7 169 33 -26 c19 -14 75 -50 126 -81z m4937 53 c25 -20 26 -23 26
-134 0 -106 -1 -115 -22 -129 -26 -18 -61 -20 -89 -6 -17 10 -19 22 -19 145 0
97 3 135 13 138 28 12 66 6 91 -14z m-3006 -2 c6 -7 14 -72 18 -144 7 -126 6
-131 -14 -142 -29 -15 -64 -14 -90 5 -21 14 -22 22 -22 140 l0 125 33 14 c41
18 62 18 75 2z m5049 -452 c2 -7 0 -100 -6 -207 -6 -106 -20 -402 -32 -658
-11 -256 -23 -471 -25 -478 -6 -19 -84 24 -84 46 0 9 7 125 15 257 8 132 23
409 35 615 11 206 23 394 26 417 5 41 5 42 35 31 17 -6 33 -16 36 -23z m-2163
-252 l-7 -168 -33 -33 c-57 -55 -59 -155 -5 -222 l30 -38 -11 -673 -11 -674
-40 -43 c-39 -44 -39 -44 -35 -112 3 -60 8 -74 37 -110 l33 -41 -3 -219 c-4
-212 -12 -272 -21 -150 -2 33 -6 61 -9 63 -2 2 -80 -6 -174 -19 -747 -102
-1630 -107 -2337 -13 -92 13 -170 20 -173 18 -3 -3 -8 -35 -12 -70 l-8 -64 -6
105 c-4 58 -7 155 -8 216 -1 101 1 113 20 130 34 30 49 69 49 124 0 56 -10 81
-47 121 l-24 26 -7 683 -7 683 28 39 c52 70 49 170 -8 222 l-33 31 -7 161 -7
162 47 -9 c26 -5 60 -20 77 -34 68 -57 97 -65 301 -80 700 -51 1279 -45 1967
21 202 19 247 31 335 89 38 25 80 45 93 45 l23 0 -7 -167z m-4850 55 c4 -57
13 -301 21 -543 8 -242 17 -482 20 -533 l5 -93 -46 -19 c-25 -11 -47 -20 -48
-20 -2 0 -6 102 -9 228 -4 125 -14 413 -22 641 -8 228 -14 415 -13 416 6 5 64
23 75 24 7 1 13 -34 17 -101z m-688 -404 c20 -5 22 -14 28 -127 13 -249 14
-230 -16 -238 -26 -7 -27 -6 -32 45 -10 102 -16 326 -9 326 5 0 18 -3 29 -6z
m5664 -2490 c-16 -30 -62 -48 -102 -40 -40 8 -58 23 -58 50 0 19 4 21 62 18
44 -2 69 1 83 12 18 13 20 13 23 -1 2 -9 -2 -26 -8 -39z m-3002 11 c60 0 72
-2 72 -16 0 -27 -38 -52 -88 -57 -44 -4 -51 -2 -70 23 -28 35 -30 71 -4 59 9
-5 50 -9 90 -9z"/>
<path d="M6250 4994 c-242 -28 -617 -55 -915 -65 -390 -13 -838 2 -1380 45
-88 8 -163 11 -167 9 -5 -2 -8 -25 -8 -50 0 -37 6 -52 35 -85 70 -82 68 -217
-3 -281 -20 -19 -20 -25 -15 -675 l6 -657 33 -39 c63 -73 63 -200 0 -265 -25
-26 -27 -33 -24 -112 l3 -84 60 -7 c579 -70 773 -83 1200 -82 473 1 650 13
1278 91 l47 6 0 84 c0 76 -3 88 -25 114 -66 80 -56 245 19 294 l26 17 0 262
c0 143 5 436 10 651 l9 390 -24 25 c-74 77 -74 222 0 293 31 30 35 40 35 86
l0 51 -42 -1 c-24 -1 -95 -8 -158 -15z"/>
</g>
</svg>
