<?xml version="1.0" standalone="no"?>
<!DOCTYPE svg PUBLIC "-//W3C//DTD SVG 20010904//EN"
 "http://www.w3.org/TR/2001/REC-SVG-20010904/DTD/svg10.dtd">
<svg version="1.0" xmlns="http://www.w3.org/2000/svg"
 width="1024.000000pt" height="1024.000000pt" viewBox="0 0 1024.000000 1024.000000"
 preserveAspectRatio="xMidYMid meet">

<g transform="translate(0.000000,1024.000000) scale(0.100000,-0.100000)"
fill="#000000" stroke="none">
<path d="M4675 7504 c-27 -2 -120 -8 -205 -14 -871 -61 -1764 -282 -2425 -599
-833 -401 -1329 -935 -1430 -1540 -26 -151 -17 -417 18 -556 80 -315 237 -576
511 -850 606 -605 1651 -1056 2849 -1229 1181 -171 2310 -86 3337 254 506 167
849 329 1210 571 594 398 931 837 1026 1334 26 134 24 388 -5 522 -123 584
-594 1079 -1406 1480 -264 130 -660 278 -955 357 -410 110 -990 213 -1420 252
-163 15 -967 28 -1105 18z m1935 -320 c353 -80 618 -154 853 -241 780 -287
1354 -720 1591 -1198 104 -210 141 -379 133 -600 -5 -122 -31 -282 -49 -300
-3 -3 -54 18 -114 46 -365 171 -1152 439 -2377 809 -143 43 -260 80 -261 82
-1 2 -19 38 -40 81 -68 140 -200 260 -391 353 -102 49 -321 124 -366 124 -10
0 -19 3 -19 6 0 22 452 525 689 767 l116 118 40 -6 c22 -4 110 -22 195 -41z
m-1240 -940 c326 -48 586 -165 745 -336 86 -91 118 -160 123 -263 4 -73 1 -90
-21 -139 -14 -31 -28 -56 -31 -56 -3 0 -157 109 -343 242 -571 409 -560 402
-728 402 -157 0 -144 7 -710 -348 -165 -103 -314 -201 -333 -217 -18 -16 -37
-29 -42 -29 -19 0 -42 111 -38 184 14 286 399 525 927 576 111 11 318 4 451
-16z m-205 -255 c25 -6 56 -22 70 -35 38 -35 30 -64 -25 -91 -77 -40 -188 -26
-247 29 -28 26 -29 43 -3 66 44 37 128 50 205 31z m678 -806 c-121 -57 -396
-133 -414 -114 -4 3 -44 130 -89 281 -45 151 -85 281 -90 289 -6 11 4 23 37
43 26 17 50 41 56 59 l12 29 278 -277 278 -278 -68 -32z m-1975 245 c116 -242
440 -446 848 -532 63 -13 118 -27 121 -30 16 -15 -237 -595 -436 -1001 -136
-278 -372 -729 -391 -749 -9 -9 -79 1 -310 46 -564 108 -1131 305 -1550 539
-280 156 -461 290 -656 484 -142 141 -227 244 -303 368 l-41 68 97 45 c412
191 1066 418 1968 683 590 173 579 170 595 170 9 0 32 -35 58 -91z"/>
</g>
</svg>
