<?xml version="1.0" standalone="no"?>
<!DOCTYPE svg PUBLIC "-//W3C//DTD SVG 20010904//EN"
 "http://www.w3.org/TR/2001/REC-SVG-20010904/DTD/svg10.dtd">
<svg version="1.0" xmlns="http://www.w3.org/2000/svg"
 width="1024.000000pt" height="1024.000000pt" viewBox="0 0 1024.000000 1024.000000"
 preserveAspectRatio="xMidYMid meet">

<g transform="translate(0.000000,1024.000000) scale(0.100000,-0.100000)"
fill="#000000" stroke="none">
<path d="M4650 8544 c-1220 -60 -2217 -276 -2675 -579 -98 -65 -212 -181 -251
-255 -26 -50 -29 -64 -29 -155 0 -89 3 -106 28 -157 84 -171 353 -362 707
-501 587 -231 1406 -371 2379 -408 968 -36 2035 84 2766 313 398 124 681 272
857 448 209 208 209 400 0 602 -361 348 -1279 584 -2642 678 -154 11 -996 21
-1140 14z m1200 -279 c774 -53 1484 -185 1911 -356 269 -107 446 -233 510
-366 189 -387 -724 -788 -2101 -923 -502 -49 -1245 -57 -1790 -20 -746 51
-1376 173 -1845 357 -278 110 -489 260 -547 390 -169 383 686 751 2072 892
168 17 340 30 620 45 156 9 961 -4 1170 -19z"/>
<path d="M8596 7325 c-40 -80 -166 -206 -286 -285 -441 -289 -1188 -493 -2155
-590 -594 -59 -1279 -64 -1855 -15 -951 82 -1650 245 -2149 500 -237 122 -398
253 -472 387 l-29 53 0 -127 c0 -121 -1 -128 -20 -128 -19 0 -20 -7 -20 -164
l0 -163 30 -39 31 -38 -4 -190 c-3 -105 -8 -207 -12 -228 -6 -33 -4 -38 21
-55 55 -35 194 -10 209 38 4 11 0 30 -8 42 -10 16 -16 74 -21 211 l-7 188 28
-21 c135 -105 353 -225 553 -304 232 -92 639 -206 886 -247 71 -12 152 -29
179 -38 l50 -17 0 -272 c1 -191 4 -276 12 -284 17 -17 103 -23 136 -10 l27 11
0 257 c0 142 4 263 8 270 6 9 31 8 107 -2 125 -18 471 -50 720 -67 112 -7 366
-12 620 -12 599 1 985 25 1293 79 78 14 149 25 157 25 12 0 15 -45 17 -275 2
-227 6 -277 17 -285 27 -16 81 -21 121 -10 l40 11 0 273 c0 330 -14 302 170
341 481 100 766 189 1045 325 143 70 331 187 374 234 14 14 28 26 33 26 4 0 8
-107 8 -237 0 -271 6 -306 52 -322 47 -17 86 -13 108 9 19 19 20 33 20 284 0
245 1 267 20 298 17 30 19 46 13 196 -5 124 -9 162 -19 162 -10 0 -14 31 -16
133 l-3 132 -29 -60z"/>
<path d="M8285 6513 c-98 -64 -347 -183 -497 -237 -213 -77 -574 -173 -838
-223 l-45 -9 2 -228 3 -227 34 -32 c20 -19 38 -49 44 -72 31 -117 21 -374 -19
-534 -41 -165 -133 -302 -238 -356 -107 -54 -238 -73 -297 -42 -64 33 -64 35
-64 552 0 564 -8 529 127 542 l63 6 0 174 0 173 -22 -5 c-493 -110 -1781 -125
-2575 -30 -67 8 -128 15 -137 15 -14 0 -16 -21 -16 -163 l0 -164 72 -9 c120
-15 112 22 116 -545 3 -525 3 -527 -56 -550 -41 -17 -187 -4 -255 21 -205 77
-318 322 -321 695 -1 190 10 249 60 302 l34 36 0 218 0 218 -37 9 c-21 5 -85
17 -143 26 -58 9 -193 38 -300 65 -397 100 -736 231 -965 371 l-66 40 3 -127
3 -127 210 -98 c116 -54 262 -118 327 -144 97 -38 118 -50 128 -73 8 -19 10
-128 8 -362 -3 -372 -2 -362 -76 -435 -49 -48 -163 -129 -233 -164 -145 -74
-294 -79 -442 -15 -16 7 -17 -8 -17 -225 0 -217 1 -232 18 -225 101 39 169 36
213 -11 l24 -26 3 -469 c2 -311 -1 -476 -8 -489 -11 -20 -66 -40 -114 -40 -26
0 -28 -2 -21 -27 29 -116 358 -352 723 -518 195 -89 401 -160 665 -230 l127
-34 0 65 c0 52 -3 64 -16 64 -26 0 -81 63 -92 106 -30 115 -20 411 17 556 40
156 121 314 206 405 59 62 87 67 182 31 150 -55 191 -188 200 -655 3 -144 2
-283 -2 -309 -9 -62 -53 -108 -118 -125 l-47 -11 -1 -69 c-1 -38 -2 -77 -3
-86 -1 -21 18 -26 199 -58 321 -56 754 -85 1270 -85 520 0 692 13 1190 93 l80
13 3 69 c4 101 1 108 -61 128 -104 33 -118 67 -125 298 -8 297 21 561 74 679
34 74 68 107 128 125 96 29 112 24 196 -62 158 -162 231 -399 234 -753 1 -152
-1 -180 -18 -213 -20 -40 -63 -77 -90 -77 -13 0 -16 -12 -16 -60 0 -33 4 -60
8 -60 5 0 64 15 133 34 484 134 934 359 1192 596 65 59 107 121 107 155 0 11
-11 15 -45 15 -36 0 -52 6 -71 25 l-25 25 3 474 3 475 29 30 c36 38 89 41 168
11 29 -11 54 -20 56 -20 1 0 2 151 2 336 0 282 -2 335 -14 331 -44 -17 -151
-47 -168 -47 -32 0 -75 28 -87 57 -8 21 -11 166 -9 537 l3 508 22 18 c15 12
49 20 101 25 l79 7 -4 116 c-3 65 -5 120 -6 124 -1 4 -33 -14 -72 -39z"/>
<path d="M8280 6221 l-35 -6 -3 -478 c-3 -538 -8 -501 76 -478 91 24 192 73
240 116 55 50 104 135 126 218 32 122 46 479 21 540 -6 15 -11 14 -41 -12 -41
-36 -105 -48 -172 -31 -58 14 -99 52 -113 102 -11 41 -19 43 -99 29z"/>
<path d="M1561 6191 c-17 -31 -24 -143 -16 -256 7 -103 8 -107 29 -101 11 4
41 9 66 12 41 4 62 -3 239 -89 133 -63 202 -102 215 -121 20 -26 21 -41 21
-248 l0 -220 -28 -23 c-15 -14 -60 -34 -100 -46 l-72 -22 35 -16 c24 -11 64
-16 130 -16 84 0 103 4 166 31 89 39 175 95 242 160 l52 50 2 90 c2 153 3 214
0 394 l-2 176 -37 14 c-21 7 -155 66 -298 132 l-260 118 -55 -29 c-30 -16 -75
-32 -101 -35 -60 -9 -143 10 -178 40 -35 29 -38 29 -50 5z"/>
<path d="M1585 5748 c-16 -5 -70 -12 -120 -14 -49 -3 -93 -8 -97 -12 -7 -7 15
-236 27 -289 3 -12 49 -63 102 -113 79 -74 116 -101 189 -136 50 -24 102 -44
115 -44 44 0 214 50 227 67 13 18 18 301 6 360 -5 26 -22 36 -177 111 -177 85
-206 92 -272 70z"/>
<path d="M3789 5523 c-30 -60 -72 -83 -152 -83 -62 0 -113 17 -136 43 -20 24
-28 21 -39 -15 -19 -62 -23 -143 -12 -279 21 -286 98 -458 233 -523 55 -27
185 -53 211 -43 14 6 16 58 16 472 0 448 -1 465 -19 465 -10 0 -32 3 -48 6
-28 5 -32 2 -54 -43z"/>
<path d="M6461 5553 c-13 -27 -2 -904 12 -922 22 -27 168 7 248 57 84 54 155
191 184 360 18 102 21 353 5 413 l-11 41 -22 -20 c-74 -70 -213 -68 -284 3
-20 20 -33 43 -33 59 0 24 -3 26 -45 26 -32 0 -47 -5 -54 -17z"/>
<path d="M1915 4481 c-170 -61 -281 -163 -321 -297 -15 -49 -18 -96 -19 -286
0 -173 3 -230 13 -240 7 -7 36 -17 65 -23 l52 -10 0 -175 c0 -147 -3 -180 -17
-207 -26 -48 -25 -211 1 -244 10 -13 22 -43 25 -66 10 -56 33 -75 87 -71 36 2
47 8 65 36 l22 32 47 -52 c268 -300 784 -564 1419 -723 97 -24 180 -47 185
-49 5 -3 11 -25 15 -48 9 -53 19 -66 62 -74 49 -9 91 11 99 48 4 16 13 32 20
35 8 2 80 -7 162 -21 182 -32 486 -70 693 -88 243 -20 1065 -17 1295 5 204 20
478 58 628 87 136 27 135 27 143 -16 8 -43 40 -59 99 -49 52 8 65 20 65 64 0
20 4 42 8 49 5 7 69 28 143 48 414 108 811 276 1079 455 131 87 279 214 329
283 37 49 51 57 51 28 0 -30 33 -52 77 -52 49 0 68 19 78 77 3 22 15 49 26 59
16 15 19 31 19 124 0 95 -2 109 -21 126 -19 17 -20 27 -17 191 3 191 2 186 69
197 22 4 42 14 48 25 30 55 19 456 -15 554 -21 61 -106 155 -182 201 -59 35
-190 86 -221 86 -11 0 -21 -10 -25 -22 -3 -13 -6 -215 -6 -450 l0 -427 85 6
85 6 0 -191 0 -192 -25 -6 c-46 -11 -55 0 -55 69 0 35 -2 66 -5 69 -3 3 -32
-21 -63 -54 -111 -117 -347 -277 -560 -379 -227 -109 -526 -217 -744 -270
l-98 -23 0 -93 c0 -81 -2 -94 -19 -103 -27 -14 -58 -13 -63 2 -3 7 -3 113 0
236 l4 222 27 6 c91 20 93 24 93 236 0 311 -67 538 -203 680 -51 54 -60 60
-86 54 -85 -20 -107 -46 -137 -166 -32 -130 -40 -226 -39 -478 0 -298 -1 -296
99 -322 33 -9 65 -19 72 -24 9 -5 12 -64 12 -226 l0 -220 -24 -6 c-53 -13 -61
-4 -61 66 0 38 -4 64 -10 63 -5 0 -77 -12 -160 -26 -180 -31 -369 -53 -565
-66 -621 -42 -1412 -7 -1880 85 -69 13 -126 24 -127 24 -2 0 -3 -34 -3 -76 l0
-75 -37 3 -38 3 0 235 0 235 55 11 c66 13 96 28 110 54 13 25 13 422 -1 548
-14 135 -35 228 -61 281 -21 41 -29 48 -82 66 l-58 20 -42 -46 c-78 -87 -136
-204 -178 -357 -19 -68 -22 -105 -22 -304 -1 -146 3 -231 10 -238 5 -5 33 -16
62 -22 l52 -13 0 -222 c0 -122 -3 -228 -6 -237 -6 -16 -39 -21 -68 -10 -13 5
-16 24 -16 99 l0 93 -82 22 c-320 85 -526 154 -736 247 -257 113 -490 258
-634 393 l-88 82 0 -76 c0 -74 -1 -76 -24 -76 -57 0 -56 -4 -56 202 l0 190 83
-3 82 -4 3 405 c2 223 0 424 -3 448 -6 40 -8 42 -38 41 -18 0 -54 -8 -82 -18z"/>
</g>
</svg>
