<?xml version="1.0" standalone="no"?>
<!DOCTYPE svg PUBLIC "-//W3C//DTD SVG 20010904//EN"
 "http://www.w3.org/TR/2001/REC-SVG-20010904/DTD/svg10.dtd">
<svg version="1.0" xmlns="http://www.w3.org/2000/svg"
 width="1024.000000pt" height="1024.000000pt" viewBox="0 0 1024.000000 1024.000000"
 preserveAspectRatio="xMidYMid meet">

<g transform="translate(0.000000,1024.000000) scale(0.100000,-0.100000)"
fill="#000000" stroke="none">
<path d="M4600 8984 c-30 -2 -140 -8 -245 -14 -807 -45 -1595 -180 -2065 -353
-365 -134 -629 -298 -744 -460 -63 -90 -80 -142 -74 -228 7 -88 63 -207 138
-291 362 -405 1431 -713 2860 -825 280 -22 1093 -25 1350 -5 696 53 1339 159
1815 298 439 128 804 313 1001 509 93 91 124 138 156 227 34 96 29 158 -16
245 -116 220 -363 377 -851 543 -502 170 -1138 279 -1990 341 -141 10 -1216
21 -1335 13z m1205 -374 c615 -40 1136 -119 1586 -240 535 -145 913 -349 973
-527 35 -104 13 -194 -69 -282 -92 -99 -203 -167 -416 -255 -868 -358 -2491
-501 -3919 -345 -857 94 -1549 280 -1890 510 -69 46 -122 103 -153 166 -107
211 36 384 483 584 476 213 1261 354 2220 399 228 10 968 5 1185 -10z"/>
<path d="M8717 7535 c-117 -112 -280 -230 -392 -284 -123 -60 -453 -196 -594
-245 -206 -72 -572 -150 -991 -211 -129 -19 -296 -43 -370 -54 -587 -87 -1541
-93 -2261 -16 -657 71 -1256 187 -1639 317 -428 146 -735 308 -915 484 -36 35
-70 64 -75 64 -28 0 -23 -229 10 -422 19 -114 66 -219 110 -246 39 -24 48 -67
56 -275 8 -223 13 -212 -74 -176 -93 39 -163 0 -178 -98 -9 -63 4 -353 17
-369 5 -6 40 -14 77 -16 50 -3 77 -10 107 -29 22 -15 103 -59 180 -100 77 -40
157 -88 177 -107 47 -42 65 -99 78 -243 19 -210 7 -327 -39 -390 l-20 -26 27
-26 c35 -33 92 -57 137 -57 62 0 311 111 339 152 19 27 21 205 6 532 -9 180
-12 211 -27 222 -17 12 -231 114 -458 216 -60 27 -118 58 -129 68 -15 15 -20
43 -28 181 -5 92 -6 203 -1 252 l8 88 67 -44 c207 -137 747 -316 1300 -433
l137 -29 3 -165 c2 -91 1 -176 -2 -190 -4 -17 -19 -32 -46 -45 -62 -31 -69
-64 -68 -330 0 -207 2 -229 32 -371 50 -241 98 -376 144 -408 35 -25 133 -21
159 5 92 92 185 627 162 941 -9 127 -35 155 -159 174 l-41 6 -6 135 c-10 192
-9 261 4 268 19 13 67 -17 83 -50 19 -39 19 -39 156 -59 428 -63 999 -89 1635
-76 523 11 689 22 932 61 179 29 204 38 232 82 21 32 30 38 55 35 l31 -3 -4
-174 c-2 -96 -7 -186 -10 -200 -6 -21 -17 -26 -76 -39 -39 -7 -76 -18 -82 -24
-20 -16 -11 -509 11 -656 33 -223 93 -398 148 -436 29 -21 107 -21 136 0 12 8
38 46 56 82 90 181 129 404 130 752 1 222 -5 241 -80 284 -38 21 -39 24 -47
91 -9 76 -4 279 8 308 6 14 14 16 44 10 56 -12 123 -5 262 26 450 104 1068
328 1230 447 74 54 78 51 72 -63 -6 -98 -19 -133 -49 -133 -7 0 -24 -10 -38
-22 -23 -20 -27 -35 -36 -127 -14 -145 -13 -303 5 -541 17 -217 36 -332 61
-368 26 -37 89 -30 162 18 70 47 103 87 143 175 74 163 119 474 103 722 l-6
112 -47 19 c-25 11 -61 23 -80 27 l-33 7 7 122 c4 66 8 152 10 189 2 63 5 72
38 105 81 85 102 178 114 505 5 140 4 167 -8 167 -8 -1 -49 -34 -92 -75z"/>
<path d="M1951 6448 c1 -40 4 -97 7 -127 l7 -55 57 -22 c111 -43 507 -237 527
-258 30 -32 38 -91 51 -391 13 -298 6 -455 -24 -500 -24 -37 -86 -74 -215
-129 -193 -82 -262 -82 -403 4 -59 35 -72 40 -108 34 l-40 -7 2 -236 3 -236
46 -6 c59 -9 82 -21 113 -62 38 -50 53 -102 73 -254 22 -175 26 -686 5 -745
-17 -47 -71 -95 -118 -104 l-36 -7 6 -54 c4 -30 11 -63 16 -73 15 -29 180
-180 265 -243 150 -111 401 -246 625 -335 168 -66 439 -155 456 -148 9 3 14
21 14 50 0 40 -3 46 -36 65 -23 14 -43 38 -57 68 -21 46 -22 61 -22 318 1 212
4 292 18 370 45 255 122 412 225 457 53 24 147 26 187 5 112 -58 213 -288 260
-587 22 -142 31 -429 16 -499 -14 -65 -70 -141 -104 -141 -13 0 -33 -7 -45
-16 -19 -13 -22 -24 -22 -78 l0 -64 131 -31 c536 -128 1376 -169 2079 -101
146 14 377 47 489 70 113 23 141 43 141 104 0 68 -8 83 -55 101 -61 23 -112
82 -120 140 -4 25 -5 155 -2 288 4 191 9 262 25 335 38 172 100 331 159 409
45 58 80 73 176 73 l85 0 50 -46 c122 -109 191 -319 222 -679 13 -149 8 -343
-11 -410 -7 -25 -27 -55 -56 -82 -34 -32 -46 -51 -50 -81 -3 -22 -1 -42 3 -45
14 -8 209 45 431 118 376 123 683 304 901 529 l92 95 0 54 c0 58 -8 70 -51 80
-39 10 -80 46 -96 86 -8 19 -18 85 -23 146 -8 128 3 511 19 635 24 175 74 280
144 298 l32 8 2 390 2 389 -42 20 c-46 22 -82 68 -97 125 -16 58 -48 378 -55
545 -6 133 4 318 22 438 3 24 1 37 -6 37 -6 0 -56 -21 -112 -46 -243 -109
-811 -275 -1106 -324 l-73 -12 0 -94 0 -94 40 -25 c22 -14 50 -44 62 -67 22
-41 23 -52 23 -293 0 -228 -3 -264 -28 -410 -42 -238 -101 -398 -180 -484 -33
-36 -96 -61 -153 -61 -108 0 -186 91 -253 295 -41 124 -57 211 -77 415 -12
128 -15 221 -10 347 8 213 18 248 80 264 97 25 91 19 96 82 3 35 1 57 -5 57
-5 0 -57 -9 -115 -21 -234 -45 -551 -69 -1125 -84 -443 -12 -1111 26 -1615 91
l-45 6 3 -46 c4 -51 9 -56 74 -80 60 -22 93 -62 114 -134 14 -48 16 -89 11
-272 -8 -292 -34 -444 -114 -683 -41 -122 -88 -186 -158 -218 -51 -24 -89 -23
-142 0 -120 55 -191 200 -260 531 -45 218 -44 618 3 710 7 14 26 38 43 54 31
29 31 31 31 132 l0 103 -57 11 c-391 79 -738 186 -1071 329 -78 33 -149 61
-157 61 -12 0 -15 -15 -14 -72z"/>
<path d="M1283 5880 c-48 -29 -56 -69 -51 -266 4 -198 12 -220 102 -300 63
-57 243 -171 301 -192 22 -8 69 -15 105 -15 179 0 222 72 201 342 -18 235 -14
230 -219 337 -70 37 -144 77 -164 90 -33 21 -49 24 -140 24 -84 0 -109 -4
-135 -20z"/>
<path d="M8396 4419 c-37 -58 -59 -237 -72 -584 -9 -248 -2 -319 36 -357 20
-19 39 -28 62 -28 78 0 76 5 71 -153 -6 -206 -6 -207 -51 -207 -32 0 -41 -6
-66 -41 -68 -97 -307 -269 -536 -388 -196 -100 -440 -188 -780 -278 l-105 -28
-3 -35 c-9 -111 -47 -186 -91 -178 -14 3 -16 30 -19 250 l-2 246 32 20 c18 11
45 22 59 26 24 5 27 11 33 67 3 34 6 143 6 243 0 199 -15 325 -56 476 -65 237
-133 306 -248 250 -49 -24 -72 -58 -114 -165 -60 -154 -81 -288 -88 -575 -5
-204 -5 -217 15 -247 28 -44 60 -63 120 -70 l51 -6 0 -92 c0 -50 3 -167 7
-258 l6 -167 -22 0 c-47 0 -81 43 -81 104 0 45 -9 47 -120 25 -363 -70 -664
-99 -1100 -106 -550 -8 -1050 32 -1505 121 -130 26 -135 25 -135 -30 0 -46
-39 -98 -76 -102 l-29 -3 -3 248 -4 248 34 17 c18 9 52 22 76 29 23 7 48 19
55 27 17 21 16 398 -1 515 -31 215 -102 416 -168 478 -18 17 -39 24 -84 27
-57 4 -61 3 -89 -27 -60 -65 -111 -251 -132 -491 -12 -133 -8 -469 5 -501 4
-9 29 -26 56 -37 48 -20 48 -21 55 -74 3 -29 7 -143 8 -253 l2 -200 -25 0
c-35 0 -68 53 -76 126 -4 32 -12 63 -18 67 -6 5 -96 37 -200 71 -481 157 -892
374 -1121 593 -53 51 -101 88 -113 88 -36 0 -45 26 -53 163 -13 210 -20 187
56 187 94 0 105 13 105 133 3 543 -18 766 -77 825 -21 21 -31 24 -69 18 -114
-15 -242 -117 -302 -238 -55 -113 -64 -163 -69 -395 -7 -297 -2 -313 88 -323
83 -8 82 4 54 -481 l-8 -127 28 -18 c15 -10 46 -20 69 -24 l41 -5 5 -82 c4
-65 9 -86 27 -105 11 -13 38 -52 58 -87 65 -111 220 -259 385 -369 269 -177
564 -304 1005 -432 172 -49 200 -60 203 -78 2 -12 19 -35 38 -52 48 -42 100
-42 149 2 l36 31 152 -26 c418 -74 751 -106 1242 -122 424 -14 1077 39 1569
127 56 10 70 10 74 0 6 -20 58 -42 96 -42 37 0 96 40 96 66 0 19 20 27 201 73
681 176 1222 482 1452 823 57 83 59 90 70 180 l12 93 61 8 62 8 6 38 c3 21 -1
121 -9 222 -30 361 -30 346 -9 357 10 5 38 13 61 17 79 13 95 63 95 290 -1
243 -70 440 -201 574 -79 80 -110 99 -177 106 -58 7 -63 6 -78 -16z"/>
</g>
</svg>
