<?xml version="1.0" standalone="no"?>
<!DOCTYPE svg PUBLIC "-//W3C//DTD SVG 20010904//EN"
 "http://www.w3.org/TR/2001/REC-SVG-20010904/DTD/svg10.dtd">
<svg version="1.0" xmlns="http://www.w3.org/2000/svg"
 width="1024.000000pt" height="1024.000000pt" viewBox="0 0 1024.000000 1024.000000"
 preserveAspectRatio="xMidYMid meet">

<g transform="translate(0.000000,1024.000000) scale(0.100000,-0.100000)"
fill="#000000" stroke="none">
<path d="M4540 8309 c-329 -12 -804 -59 -1160 -115 -872 -138 -1401 -328
-1681 -604 -290 -287 -149 -609 384 -879 420 -213 1118 -380 1922 -461 493
-50 1300 -68 1780 -41 430 25 913 83 1260 152 885 176 1455 440 1622 754 36
67 38 74 38 165 0 91 -2 98 -38 166 -59 110 -179 221 -341 314 -300 173 -687
292 -1306 404 -702 127 -1580 178 -2480 145z m1170 -259 c532 -32 606 -38 910
-80 564 -78 1070 -206 1383 -348 163 -75 349 -226 395 -323 16 -33 22 -64 22
-115 0 -90 -28 -148 -112 -233 -472 -472 -2145 -759 -3828 -656 -901 56 -1556
177 -2083 386 -274 109 -467 245 -543 382 -38 69 -40 168 -5 237 54 103 233
246 406 326 506 230 1386 389 2365 427 192 8 951 5 1090 -3z"/>
<path d="M1506 7093 c-18 -59 -26 -175 -17 -258 6 -49 9 -130 8 -180 -2 -77 1
-96 21 -133 13 -24 39 -52 58 -64 l34 -20 0 -252 c0 -288 0 -286 79 -286 84 0
81 -11 81 260 0 132 3 240 7 240 4 0 38 -22 77 -49 84 -57 277 -156 414 -210
288 -115 629 -203 984 -257 109 -16 117 -19 123 -42 9 -37 35 -72 67 -88 l29
-15 -2 -262 -1 -262 33 -17 c42 -22 81 -23 119 -3 l30 16 0 264 c0 264 0 264
23 276 12 6 29 21 38 32 l17 20 208 -22 c856 -90 1743 -92 2476 -5 136 16 137
16 159 -5 12 -11 31 -23 41 -27 17 -5 18 -23 18 -268 l0 -262 29 -17 c36 -21
80 -22 126 -3 l35 15 0 263 0 264 30 17 c17 10 39 35 49 55 l18 36 189 33
c310 55 621 138 859 230 162 63 271 119 400 207 70 47 132 86 136 86 5 0 9
-108 9 -240 l0 -240 28 -11 c38 -15 113 -5 129 17 10 14 13 77 13 265 l0 247
39 38 c49 49 70 129 54 201 -9 37 -8 55 4 87 20 53 22 224 5 294 -8 28 -17 52
-21 52 -4 0 -18 -24 -33 -52 -86 -176 -340 -359 -688 -498 -381 -152 -931
-284 -1470 -354 -481 -63 -902 -88 -1435 -87 -1006 1 -1789 99 -2562 322 -523
151 -920 386 -1033 612 -21 42 -30 53 -34 40z"/>
<path d="M8306 6006 c-26 -8 -52 -20 -57 -27 -5 -8 -9 -224 -9 -480 0 -439 1
-467 18 -482 10 -10 27 -17 37 -17 11 0 82 31 159 69 166 81 230 134 273 226
28 60 28 62 31 293 3 198 1 238 -12 258 l-16 23 -52 -24 c-63 -30 -118 -31
-175 -6 -51 24 -73 63 -73 131 l0 50 -37 -1 c-21 0 -60 -6 -87 -13z"/>
<path d="M1945 5907 c-66 -24 -129 -46 -140 -51 -16 -6 20 -24 158 -83 198
-84 247 -118 266 -188 7 -25 11 -149 11 -328 l0 -288 -59 -93 c-57 -91 -79
-136 -66 -136 3 0 106 79 229 175 153 121 229 187 243 213 19 34 21 60 27 313
7 275 3 322 -27 341 -16 11 -497 168 -511 167 -6 0 -65 -19 -131 -42z"/>
<path d="M1500 5821 c-11 -22 -14 -251 -2 -251 4 0 43 11 86 25 43 14 92 25
107 25 33 0 261 -91 299 -119 25 -18 25 -21 28 -169 3 -173 15 -153 -113 -196
-44 -15 -92 -32 -107 -38 -27 -10 -48 -51 -48 -93 0 -28 -30 -41 -120 -56
l-70 -12 0 -62 c0 -45 5 -69 18 -84 9 -11 79 -50 156 -85 150 -70 159 -71 214
-22 22 19 179 250 199 291 5 12 8 134 5 298 -4 264 -5 279 -26 309 -17 26 -52
45 -191 105 -177 77 -382 153 -409 153 -8 0 -20 -9 -26 -19z"/>
<path d="M1555 5499 l-90 -29 -98 19 c-91 18 -101 18 -153 4 -33 -10 -53 -21
-51 -28 3 -6 11 -46 17 -88 7 -42 18 -84 24 -92 6 -8 46 -25 89 -36 76 -21 79
-23 112 -74 53 -83 120 -125 222 -139 l52 -7 7 48 c9 63 34 85 135 118 131 43
129 41 129 139 0 56 -4 87 -13 94 -24 20 -240 102 -266 101 -14 0 -66 -14
-116 -30z"/>
<path d="M3725 5302 c-3 -3 -5 -29 -5 -57 0 -93 -57 -138 -176 -138 -56 0 -80
5 -109 21 -20 12 -41 20 -46 17 -5 -4 -9 -116 -9 -260 0 -234 2 -260 22 -321
47 -143 176 -231 390 -264 75 -12 96 -7 103 24 3 11 4 230 3 486 l-3 465 -25
11 c-26 12 -137 24 -145 16z"/>
<path d="M6470 5298 c-53 -6 -79 -13 -87 -25 -10 -13 -13 -125 -13 -478 0
-535 -4 -511 84 -500 224 31 371 121 428 263 22 55 23 66 20 312 -3 290 -4
293 -67 259 -33 -17 -55 -20 -127 -17 -80 3 -90 5 -115 31 -22 21 -30 42 -38
95 l-10 67 -75 -7z"/>
<path d="M8552 5012 l-63 -26 3 -350 c2 -193 0 -367 -5 -387 l-7 -35 114 -82
c63 -45 118 -82 122 -82 3 0 5 48 2 108 -5 107 -22 165 -64 213 -11 12 -14 81
-14 342 -1 248 -4 327 -13 326 -7 0 -40 -13 -75 -27z"/>
<path d="M1650 4519 l0 -121 -39 -44 c-34 -39 -39 -51 -45 -113 -6 -70 2 -194
13 -189 3 2 54 39 114 83 104 78 107 81 100 110 -5 16 -8 98 -8 182 l1 151
-36 17 c-19 10 -50 24 -67 31 l-33 14 0 -121z"/>
<path d="M1943 4207 c-135 -77 -354 -245 -391 -300 -51 -75 -55 -96 -60 -353
l-4 -240 27 -32 c15 -18 43 -36 65 -42 l39 -10 3 -214 c3 -194 5 -216 22 -235
24 -26 91 -28 125 -4 l24 16 -6 224 c-4 122 -6 223 -4 223 1 0 44 5 95 10 55
5 103 15 118 25 l24 15 0 430 c0 247 -4 439 -10 454 -13 34 -41 48 -67 33z"/>
<path d="M8269 4193 c-11 -13 -15 -99 -17 -442 -1 -234 -1 -435 2 -446 9 -34
46 -48 141 -54 l90 -6 3 -230 c3 -259 2 -255 77 -255 80 0 79 -1 85 252 l5
223 39 6 c25 4 48 16 63 33 23 27 23 31 23 260 0 253 -8 302 -58 378 -28 44
-183 164 -290 227 -38 22 -74 47 -82 55 -17 21 -64 20 -81 -1z"/>
<path d="M3611 3597 c-53 -26 -215 -306 -245 -423 -13 -48 -16 -116 -16 -307
l0 -245 29 -25 c16 -13 45 -27 65 -31 l35 -7 3 -275 3 -276 24 -19 c29 -23 98
-25 129 -3 22 15 22 17 22 298 l0 282 48 23 c73 36 138 88 156 125 14 29 16
85 16 414 0 451 10 417 -127 451 -48 12 -95 24 -103 26 -8 3 -26 -1 -39 -8z"/>
<path d="M6525 3584 c-59 -16 -96 -31 -107 -45 -17 -19 -18 -55 -18 -418 0
-367 1 -398 18 -424 23 -35 71 -70 143 -107 l56 -29 6 -278 c6 -270 6 -278 27
-295 28 -22 98 -24 128 -2 22 15 22 17 22 293 l0 278 41 12 c23 7 52 23 65 36
24 24 24 25 24 250 0 169 -4 243 -16 295 -34 153 -230 465 -287 459 -7 -1 -52
-12 -102 -25z"/>
<path d="M1870 2956 l0 -195 -27 -26 c-16 -14 -40 -29 -55 -32 -16 -3 -28 -9
-28 -13 0 -4 36 -42 80 -83 210 -198 614 -406 1061 -547 147 -47 551 -151 558
-144 3 2 -5 14 -16 27 -36 40 -38 50 -43 282 l-5 229 -40 9 c-340 74 -646 178
-930 317 -184 90 -331 183 -462 293 l-93 77 0 -194z"/>
<path d="M8335 3093 c-158 -145 -344 -261 -601 -375 -223 -99 -591 -217 -794
-255 l-45 -9 -5 -234 c-3 -129 -7 -236 -8 -237 -1 -1 -16 -18 -34 -38 l-31
-36 29 7 c725 168 1235 385 1559 663 106 92 115 105 76 121 -16 6 -40 23 -53
37 -22 24 -23 32 -28 218 l-5 193 -60 -55z"/>
<path d="M3750 2195 c0 -148 -3 -192 -15 -216 -17 -32 -89 -89 -114 -89 -79
-2 257 -63 519 -94 295 -36 489 -48 875 -53 622 -9 975 18 1578 121 74 13 111
26 72 26 -25 0 -83 46 -106 84 -17 28 -19 52 -19 219 0 209 6 196 -75 177
-129 -29 -517 -73 -815 -91 -238 -14 -791 -14 -1035 1 -288 17 -652 59 -837
96 l-28 6 0 -187z"/>
</g>
</svg>
