<?xml version="1.0" standalone="no"?>
<!DOCTYPE svg PUBLIC "-//W3C//DTD SVG 20010904//EN"
 "http://www.w3.org/TR/2001/REC-SVG-20010904/DTD/svg10.dtd">
<svg version="1.0" xmlns="http://www.w3.org/2000/svg"
 width="1024.000000pt" height="1024.000000pt" viewBox="0 0 1024.000000 1024.000000"
 preserveAspectRatio="xMidYMid meet">

<g transform="translate(0.000000,1024.000000) scale(0.100000,-0.100000)"
fill="#000000" stroke="none">
<path d="M4966 7514 l-26 -27 0 -187 c0 -242 -10 -230 184 -230 133 0 138 1
162 25 l25 25 -3 186 -3 186 -28 24 c-27 23 -35 24 -156 24 -125 0 -129 -1
-155 -26z"/>
<path d="M4788 6874 c-51 -27 -58 -57 -58 -239 0 -266 -17 -255 392 -255 326
0 334 1 372 53 19 25 21 45 24 180 4 172 -4 213 -49 251 l-31 26 -311 0 c-256
-1 -317 -3 -339 -16z"/>
<path d="M4340 6769 c-705 -63 -1228 -157 -1706 -305 -260 -80 -547 -203 -729
-312 -246 -146 -422 -337 -477 -516 -27 -89 -22 -233 11 -315 134 -333 603
-635 1311 -844 1273 -376 2945 -423 4305 -121 737 164 1263 398 1555 694 160
162 222 283 222 440 2 589 -1089 1090 -2743 1260 -107 11 -241 23 -297 26
l-102 7 0 -85 0 -86 45 -6 c61 -10 174 -49 236 -82 69 -38 99 -76 99 -125 0
-34 -7 -47 -48 -88 -106 -106 -359 -191 -661 -222 -146 -15 -485 -7 -606 15
-349 63 -585 182 -585 296 0 74 113 150 290 194 l95 24 3 81 3 81 -63 -1 c-35
-1 -106 -6 -158 -10z"/>
<path d="M1418 4921 c-19 -55 -16 -186 6 -254 38 -116 129 -242 251 -349 225
-197 550 -366 975 -509 744 -249 1654 -372 2625 -356 724 12 1287 80 1861 222
706 176 1208 412 1494 705 90 92 135 159 178 262 21 51 26 80 27 153 0 52 -6
106 -14 129 l-13 38 -46 -52 c-349 -399 -1177 -748 -2167 -914 -527 -88 -991
-121 -1600 -113 -884 12 -1648 129 -2336 357 -528 176 -908 386 -1151 637
l-77 80 -13 -36z"/>
<path d="M4920 2997 c0 -333 -17 -307 197 -307 83 0 159 3 168 6 40 16 45 52
45 314 l0 250 -205 0 -205 0 0 -263z"/>
</g>
</svg>
